<svg xmlns="http://www.w3.org/2000/svg" width="365.157" height="489.157" viewBox="0 0 365.157 489.157">
  <defs>
    <style>
      .cls-1 {
        stroke: #000;
        stroke-linecap: round;
        stroke-width: 0.15px;
        fill-rule: evenodd;
      }
    </style>
  </defs>
  <path id="Vorm_316_1" data-name="Vorm 316 1" class="cls-1" d="M306.2,78.4h7.807L352.07,27.641v1.952q8.293,29.279,16.59,58.563c6.824-.85,26.194-35.331,34.158-41.97q-9.27,57.581-18.543,115.173c-61.475-27.725-168.365-26.964-231.3-1.952-19.419,7.718-34.993,21.591-52.7,29.282L71,60.826C93.266,71.476,130.79,100,156.882,100.844l28.3-78.083c13.15,10.939,37.71,54.6,54.653,55.635L285.706,13l1.952,0.976Q296.928,46.183,306.2,78.4Zm80.026,195.21c0.442-15.169-.361-36.155-7.807-46.851-12.632-18.145-106.653-22.786-140.535-22.449-0.795,19.259-1.388,35.962,6.832,47.827,34.571,5.9,70.681,7.193,101.5,16.593Q362.8,354.608,379.4,440.509c1.973,7.677,7.514,47.471,5.855,48.8-9.847,7.9-72.2,10.5-87.834,12.689H264.235c-5.155-.672-15.436-2.649-22.446-3.9-57.331-10.268-99.8-16.656-138.583-42.946l-15.615-7.809c-4.729-5.872.563-49.776,0.976-58.563q6.343-64.412,12.687-128.838c2.947-13.866-1.2-30.674,4.88-40.994,8.687-3.226,11.011-10.672,17.567-15.617l45.869-24.4c64.592-25.59,164.966-14.165,215.681,15.617L401.842,265.8l20.5,122.982L436,457.1c-1.953,15.935-24.621,28.105-40.989,30.257-1.869-2.366-.627-1.577-3.9-2.928Q373.054,379.029,355,273.605h31.23Z" transform="translate(-70.906 -12.906)"/>
</svg>
